<?xml version="1.0" encoding="utf-8"?>
<!-- Generator: Adobe Illustrator 17.0.0, SVG Export Plug-In . SVG Version: 6.00 Build 0)  -->
<!DOCTYPE svg PUBLIC "-//W3C//DTD SVG 1.1//EN" "http://www.w3.org/Graphics/SVG/1.1/DTD/svg11.dtd">
<svg version="1.1" id="Layer_1" xmlns="http://www.w3.org/2000/svg" xmlns:xlink="http://www.w3.org/1999/xlink" x="0px" y="0px"
	 width="72px" height="65.016px" viewBox="0 0 72 65.016" enable-background="new 0 0 72 65.016" xml:space="preserve">
<g id="Calendar">
	<path fill="#B51E52" d="M65.531,6.57h-3.392V5.652c0-2.749-2.461-4.999-5.469-4.999h-0.081c-3.008,0-5.469,2.25-5.469,4.999V6.57
		H20.876V5.652c0-2.749-2.461-4.999-5.469-4.999h-0.081c-3.008,0-5.469,2.25-5.469,4.999V6.57H6.469C3.461,6.57,1,8.82,1,11.569
		v47.794c0,2.749,2.461,4.999,5.469,4.999h59.062c3.008,0,5.469-2.25,5.469-4.999V11.569C71,8.82,68.539,6.57,65.531,6.57z
		 M53.308,5.652c0-1.652,1.47-2.999,3.281-2.999h0.081c1.807,0,3.281,1.347,3.281,2.999v8.893c0,1.652-1.474,2.999-3.281,2.999
		h-0.081c-1.811,0-3.281-1.347-3.281-2.999V5.652z M12.044,5.652c0-1.652,1.47-2.999,3.281-2.999h0.081
		c1.807,0,3.281,1.347,3.281,2.999v8.893c0,1.652-1.474,2.999-3.281,2.999h-0.081c-1.812,0-3.281-1.347-3.281-2.999V5.652z
		 M65.531,60.363H6.469c-0.594,0-1.094-0.461-1.094-1V24.223h61.25v35.141C66.625,59.903,66.125,60.363,65.531,60.363z"/>
</g>
</svg>
