<?xml version="1.0" encoding="utf-8"?>
<!-- Generator: Adobe Illustrator 17.0.0, SVG Export Plug-In . SVG Version: 6.00 Build 0)  -->
<!DOCTYPE svg PUBLIC "-//W3C//DTD SVG 1.1//EN" "http://www.w3.org/Graphics/SVG/1.1/DTD/svg11.dtd">
<svg version="1.1" id="Layer_1" xmlns="http://www.w3.org/2000/svg" xmlns:xlink="http://www.w3.org/1999/xlink" x="0px" y="0px"
	 width="134px" height="134px" viewBox="0 0 170 155" enable-background="new 0 0 170 155" xml:space="preserve">
<path class="heart" fill="#B61E54" d="M100.038,84.764c-1.777-1.073-4.316-2.062-7.483-2.968v21.337c1.209-0.202,2.331-0.474,3.322-0.817
	c5.43-1.904,8.143-5.421,8.143-10.572C104.021,88.742,102.699,86.416,100.038,84.764"/>
<path class="heart" fill="#B61E54" d="M68.076,56.881c0,3.124,1.416,5.46,4.242,6.992c1.205,0.678,3.3,1.427,6.263,2.259V46.61
	c-2.392,0.467-4.497,1.214-6.197,2.352C69.509,50.844,68.076,53.502,68.076,56.881"/>
<path class="heart" fill="#B61E54" d="M154.478,15.071C135.241-4.065,104.135-3.99,84.999,15.256C65.862-3.99,34.758-4.065,15.521,15.071
	C-3.718,34.201-4.164,65.048,16.99,86.207c23.617,23.605,61.398,61.406,68.005,68.023c6.618-6.617,44.392-44.417,68.009-68.023
	C174.169,65.048,173.716,34.199,154.478,15.071 M110.157,109.169c-4.539,3.889-10.571,6.217-18.06,7.034v8.205H78.109v-8.301
	c-7.176-0.904-13.076-3.181-17.685-6.814c-6.151-4.856-9.221-11.515-9.221-19.997h16.258c0.521,3.728,1.564,6.512,3.104,8.358
	c1.742,2.062,4.261,3.48,7.541,4.295V79.774c-8.373-1.879-14.158-3.933-17.341-6.128c-5.492-3.758-8.244-9.646-8.244-17.643
	c0-7.307,2.688-13.357,8.074-18.196c4.247-3.826,10.101-6.11,17.513-6.905v-7.287c0-0.013-0.005-0.013-0.005-0.013l13.995,0.025
	v7.636c5.408,0.993,10.223,3.013,14.437,6.127c6.146,4.568,9.355,11.163,9.663,19.828H99.823c-0.31-4.894-2.495-8.381-6.584-10.445
	c-0.356-0.184-0.752-0.315-1.144-0.47v20.516l5.296,1.247c6.27,1.473,10.972,3.451,14.104,5.908
	c4.858,3.845,7.295,9.397,7.295,16.659C118.796,98.07,115.905,104.27,110.157,109.169"/>
<rect x="1.105" y="0.77" fill="none" width="167.789" height="153.46"/>
</svg>
