<?xml version="1.0" encoding="utf-8"?>
<!-- Generator: Adobe Illustrator 17.0.0, SVG Export Plug-In . SVG Version: 6.00 Build 0)  -->
<!DOCTYPE svg PUBLIC "-//W3C//DTD SVG 1.1//EN" "http://www.w3.org/Graphics/SVG/1.1/DTD/svg11.dtd">
<svg version="1.1" id="Layer_1" xmlns="http://www.w3.org/2000/svg" xmlns:xlink="http://www.w3.org/1999/xlink" x="0px" y="0px"
	 width="170px" height="170px" viewBox="-35 -35 170 170" enable-background="new -35 -35 170 170" xml:space="preserve">
<g>
	<path fill="#B61E54" d="M18.326,37.109v31.054c0,17.082,13.817,30.978,30.802,30.978c16.974,0,30.797-13.778,30.916-30.759
		c-0.01-0.072-0.016-0.145-0.016-0.219V21.373c-0.006-2.977-2.44-4.059-4.075-4.059c-1.052,0.001-2.084,0.4-2.837,1.093
		c-0.82,0.757-1.236,1.762-1.234,2.985v27.92c0,0.015,0,0.029-0.001,0.044c0.001,0.013,0.001,0.025,0.001,0.038
		c0,1.514-1.232,2.746-2.745,2.746c-1.514,0-2.746-1.232-2.746-2.746c0-0.012,0-0.025,0.001-0.038
		c-0.001-0.014-0.001-0.029-0.001-0.043V6.706c-0.007-2.977-2.441-4.059-4.075-4.059c-1.053,0.001-2.085,0.4-2.837,1.093
		c-0.822,0.757-1.237,1.761-1.235,2.985v42.667c0,1.514-1.232,2.746-2.745,2.746c-1.514,0-2.746-1.232-2.746-2.746V2.199
		c-0.007-2.978-2.44-4.06-4.075-4.06c-1.051,0.002-2.083,0.401-2.836,1.094c-0.822,0.758-1.237,1.762-1.235,2.985v47.175
		c0,1.514-1.231,2.746-2.745,2.746c-1.514,0-2.746-1.232-2.746-2.746V10.8c-0.006-2.978-2.44-4.061-4.075-4.061
		c-1.05,0.001-2.081,0.401-2.835,1.095c-0.822,0.756-1.237,1.76-1.235,2.985v48.692c5.861,0.447,11.532,2.333,16.486,5.492
		c0.085,0.054,0.165,0.117,0.237,0.187c0.665,0.52,1.054,1.297,1.054,2.135c0,1.514-1.232,2.746-2.746,2.746
		c-0.268,0-0.533-0.04-0.793-0.119c-0.19-0.035-0.373-0.105-0.538-0.212c-4.894-3.167-10.581-4.841-16.447-4.841h-1.23
		c-0.838,0-1.516-0.679-1.516-1.516V43.283c-0.008-4.009-3.197-6.175-6.194-6.175l-0.013-1.516l0.002,1.516L18.326,37.109z"/>
	<path fill="#B61E54" d="M120.428-12.21c-19.446-19.344-50.89-19.268-70.234,0.188C30.849-31.478-0.593-31.555-20.039-12.21
		c-19.448,19.337-19.899,50.52,1.486,71.908C5.319,83.559,43.511,121.771,50.19,128.46c6.689-6.689,44.874-44.9,68.747-68.762
		C140.332,38.31,139.874,7.125,120.428-12.21z M49.126,104.635c-19.901,0-36.159-16.243-36.288-36.227
		c-0.002-0.035-0.003-0.069-0.003-0.104V34.371c0-1.514,1.232-2.746,2.746-2.746l3.683-0.007c2.191,0,4.36,0.633,6.214,1.765V10.825
		c-0.007-2.74,1.061-5.238,3.006-7.031c1.757-1.615,4.14-2.541,6.54-2.545c1.414,0,2.817,0.319,4.092,0.911
		c0.011-2.717,1.077-5.19,3.007-6.965c1.755-1.615,4.138-2.543,6.539-2.546c3.486,0,7.28,1.977,8.844,5.783
		c1.448-0.82,3.116-1.273,4.795-1.275c4.708,0,9.57,3.571,9.583,9.546v6.016c1.262-0.579,2.655-0.894,4.056-0.896
		c4.706,0,9.568,3.571,9.58,9.545v46.596c0.009,0.067,0.014,0.134,0.014,0.203C85.532,88.276,69.201,104.635,49.126,104.635z"/>
</g>
</svg>
