<?xml version="1.0" encoding="utf-8"?>
<!-- Generator: Adobe Illustrator 17.0.0, SVG Export Plug-In . SVG Version: 6.00 Build 0)  -->
<!DOCTYPE svg PUBLIC "-//W3C//DTD SVG 1.1//EN" "http://www.w3.org/Graphics/SVG/1.1/DTD/svg11.dtd">
<svg version="1.1" id="Layer_1" xmlns="http://www.w3.org/2000/svg" xmlns:xlink="http://www.w3.org/1999/xlink" x="0px" y="0px"
	 width="134px" height="134px" viewBox="0 0 170 155" enable-background="new 0 0 170 155" xml:space="preserve">
<g>
	<polygon class="heart" fill="#B61E54" points="110.198,108.753 115.357,103.654 110.198,103.654 	"/>
	<path class="heart" fill="#B61E54" d="M103.302,101.772c0-2.832,2.304-5.136,5.136-5.136h10.497V24.122H56.839v88.144h46.464v-10.494H103.302z
		 M87.775,36.272c4.175,0,7.56,3.384,7.56,7.559s-3.385,7.559-7.56,7.559s-7.559-3.384-7.559-7.559S83.6,36.272,87.775,36.272z
		 M72.81,86.46h8.721V60.314H72.81v-4.376h21.735V86.46h8.788v4.36H72.81V86.46z"/>
	<path class="heart" fill="#B61E54" d="M155.534,14.351C136.229-4.853,105.013-4.777,85.81,14.538C66.606-4.777,35.392-4.853,16.087,14.351
		C-3.219,33.548-3.667,64.505,17.562,85.737c23.7,23.688,61.614,61.622,68.244,68.263c6.641-6.641,44.548-44.573,68.248-68.263
		C175.293,64.505,174.839,33.546,155.534,14.351z M107.512,115.184V103.3c0-1.286,1.047-2.333,2.334-2.333h12.05L107.512,115.184z
		 M121.969,99.67h-13.53c-1.158,0-2.102,0.943-2.102,2.102V115.3H53.805v-0.797V21.087h68.164
		C121.969,21.087,121.969,99.67,121.969,99.67z"/>
</g>
</svg>
