<?xml version="1.0" encoding="utf-8"?>
<!-- Generator: Adobe Illustrator 17.0.0, SVG Export Plug-In . SVG Version: 6.00 Build 0)  -->
<!DOCTYPE svg PUBLIC "-//W3C//DTD SVG 1.1//EN" "http://www.w3.org/Graphics/SVG/1.1/DTD/svg11.dtd">
<svg version="1.1" id="Layer_1" xmlns="http://www.w3.org/2000/svg" xmlns:xlink="http://www.w3.org/1999/xlink" x="0px" y="0px"
	 width="170px" height="155px" viewBox="-35 -27.5 170 155" enable-background="new -35 -27.5 170 155" xml:space="preserve">
<g>
	<polygon fill="#B61E54" points="74.387,81.753 79.546,76.654 74.387,76.654 	"/>
	<path fill="#B61E54" d="M67.491,74.772c0-2.832,2.304-5.136,5.136-5.136h10.497V-2.878H21.028v88.144h46.464V74.772z M51.964,9.272
		c4.175,0,7.56,3.384,7.56,7.559s-3.385,7.559-7.56,7.559s-7.559-3.384-7.559-7.559S47.789,9.272,51.964,9.272z M36.999,59.46h8.721
		V33.314h-8.721v-4.376h21.735V59.46h8.788v4.36H36.999V59.46z"/>
	<path fill="#B61E54" d="M119.723-12.649c-19.305-19.204-50.521-19.128-69.724,0.187C30.795-31.777-0.419-31.853-19.724-12.649
		C-39.03,6.548-39.478,37.505-18.249,58.737C5.451,82.425,43.365,120.359,49.995,127c6.641-6.641,44.548-44.573,68.248-68.263
		C139.482,37.505,139.028,6.546,119.723-12.649z M71.701,88.184V76.3c0-1.286,1.047-2.333,2.334-2.333h12.05L71.701,88.184z
		 M86.158,72.67h-13.53c-1.158,0-2.102,0.943-2.102,2.102V88.3H17.994v-0.797V-5.913h68.164V72.67z"/>
</g>
</svg>
